<svg width="867" height="251" viewBox="0 0 867 251" fill="none" xmlns="http://www.w3.org/2000/svg">
<path d="M60.3636 1.27274H82.8182V61.3182C82.8182 68.2576 81.1667 74.303 77.8636 79.4546C74.5606 84.5758 69.9545 88.5455 64.0455 91.3636C58.1364 94.1515 51.2727 95.5455 43.4545 95.5455C35.5455 95.5455 28.6364 94.1515 22.7273 91.3636C16.8182 88.5455 12.2273 84.5758 8.95455 79.4546C5.68182 74.303 4.04545 68.2576 4.04545 61.3182V1.27274H26.5455V59.3636C26.5455 62.5758 27.2424 65.4394 28.6364 67.9546C30.0606 70.4697 32.0455 72.4394 34.5909 73.8636C37.1364 75.2879 40.0909 76 43.4545 76C46.8182 76 49.7576 75.2879 52.2727 73.8636C54.8182 72.4394 56.803 70.4697 58.2273 67.9546C59.6515 65.4394 60.3636 62.5758 60.3636 59.3636V1.27274ZM184.784 47.8182C184.784 58.0606 182.814 66.7424 178.875 73.8636C174.936 80.9849 169.602 86.394 162.875 90.0909C156.178 93.7879 148.663 95.6364 140.33 95.6364C131.966 95.6364 124.436 93.7727 117.739 90.0455C111.042 86.3182 105.723 80.9091 101.784 73.8182C97.875 66.697 95.9205 58.0303 95.9205 47.8182C95.9205 37.5758 97.875 28.8939 101.784 21.7727C105.723 14.6515 111.042 9.24243 117.739 5.54546C124.436 1.84849 131.966 7.62939e-06 140.33 7.62939e-06C148.663 7.62939e-06 156.178 1.84849 162.875 5.54546C169.602 9.24243 174.936 14.6515 178.875 21.7727C182.814 28.8939 184.784 37.5758 184.784 47.8182ZM161.784 47.8182C161.784 41.7576 160.92 36.6364 159.193 32.4546C157.496 28.2727 155.042 25.1061 151.83 22.9546C148.648 20.803 144.814 19.7273 140.33 19.7273C135.875 19.7273 132.042 20.803 128.83 22.9546C125.617 25.1061 123.148 28.2727 121.42 32.4546C119.723 36.6364 118.875 41.7576 118.875 47.8182C118.875 53.8788 119.723 59 121.42 63.1818C123.148 67.3636 125.617 70.5303 128.83 72.6818C132.042 74.8333 135.875 75.9091 140.33 75.9091C144.814 75.9091 148.648 74.8333 151.83 72.6818C155.042 70.5303 157.496 67.3636 159.193 63.1818C160.92 59 161.784 53.8788 161.784 47.8182ZM197.92 1.27274H225.784L249.42 58.9091H250.511L274.148 1.27274H302.011V94.3636H280.102V37.1818H279.33L256.966 93.7727H242.966L220.602 36.8636H219.83V94.3636H197.92V1.27274Z" fill="#8B28FF"/>
<path d="M24.1818 249.364H0L31.4091 156.273H61.3636L92.7727 249.364H68.5909L46.7273 179.727H46L24.1818 249.364ZM20.9545 212.727H71.5V229.818H20.9545V212.727ZM102.795 249.364V156.273H125.295V231.091H164.023V249.364H102.795ZM233.136 186.682C232.621 184.773 231.864 183.091 230.864 181.636C229.864 180.152 228.636 178.894 227.182 177.864C225.727 176.833 224.061 176.061 222.182 175.545C220.303 175 218.242 174.727 216 174.727C211.485 174.727 207.576 175.818 204.273 178C201 180.182 198.47 183.364 196.682 187.545C194.894 191.697 194 196.742 194 202.682C194 208.652 194.864 213.742 196.591 217.955C198.318 222.167 200.818 225.379 204.091 227.591C207.364 229.803 211.333 230.909 216 230.909C220.121 230.909 223.606 230.242 226.455 228.909C229.333 227.545 231.515 225.621 233 223.136C234.485 220.652 235.227 217.727 235.227 214.364L239.409 214.864H216.773V198.455H256.909V210.773C256.909 219.106 255.136 226.242 251.591 232.182C248.076 238.121 243.227 242.682 237.045 245.864C230.894 249.045 223.818 250.636 215.818 250.636C206.939 250.636 199.136 248.712 192.409 244.864C185.682 241.015 180.439 235.53 176.682 228.409C172.924 221.258 171.045 212.773 171.045 202.955C171.045 195.318 172.182 188.545 174.455 182.636C176.727 176.697 179.894 171.667 183.955 167.545C188.045 163.424 192.773 160.303 198.136 158.182C203.53 156.061 209.333 155 215.545 155C220.939 155 225.955 155.773 230.591 157.318C235.258 158.864 239.379 161.045 242.955 163.864C246.561 166.682 249.485 170.03 251.727 173.909C253.97 177.788 255.364 182.045 255.909 186.682H233.136ZM358.034 202.818C358.034 213.061 356.064 221.742 352.125 228.864C348.186 235.985 342.852 241.394 336.125 245.091C329.428 248.788 321.913 250.636 313.58 250.636C305.216 250.636 297.686 248.773 290.989 245.045C284.292 241.318 278.973 235.909 275.034 228.818C271.125 221.697 269.17 213.03 269.17 202.818C269.17 192.576 271.125 183.894 275.034 176.773C278.973 169.652 284.292 164.242 290.989 160.545C297.686 156.848 305.216 155 313.58 155C321.913 155 329.428 156.848 336.125 160.545C342.852 164.242 348.186 169.652 352.125 176.773C356.064 183.894 358.034 192.576 358.034 202.818ZM335.034 202.818C335.034 196.758 334.17 191.636 332.443 187.455C330.746 183.273 328.292 180.106 325.08 177.955C321.898 175.803 318.064 174.727 313.58 174.727C309.125 174.727 305.292 175.803 302.08 177.955C298.867 180.106 296.398 183.273 294.67 187.455C292.973 191.636 292.125 196.758 292.125 202.818C292.125 208.879 292.973 214 294.67 218.182C296.398 222.364 298.867 225.53 302.08 227.682C305.292 229.833 309.125 230.909 313.58 230.909C318.064 230.909 321.898 229.833 325.08 227.682C328.292 225.53 330.746 222.364 332.443 218.182C334.17 214 335.034 208.879 335.034 202.818ZM371.17 249.364V156.273H409.625C416.595 156.273 422.61 157.53 427.67 160.045C432.761 162.53 436.686 166.106 439.443 170.773C442.201 175.409 443.58 180.909 443.58 187.273C443.58 193.727 442.17 199.212 439.352 203.727C436.534 208.212 432.534 211.636 427.352 214C422.17 216.333 416.034 217.5 408.943 217.5H384.625V199.773H404.761C408.155 199.773 410.989 199.333 413.261 198.455C415.564 197.545 417.307 196.182 418.489 194.364C419.67 192.515 420.261 190.152 420.261 187.273C420.261 184.394 419.67 182.015 418.489 180.136C417.307 178.227 415.564 176.803 413.261 175.864C410.958 174.894 408.125 174.409 404.761 174.409H393.67V249.364H371.17ZM423.58 206.818L446.761 249.364H422.216L399.489 206.818H423.58ZM478.42 156.273V249.364H455.92V156.273H478.42ZM489.5 174.545V156.273H568.182V174.545H539.955V249.364H517.773V174.545H489.5ZM579.17 249.364V156.273H601.67V193.636H638.352V156.273H660.807V249.364H638.352V211.955H601.67V249.364H579.17ZM674.92 156.273H702.784L726.42 213.909H727.511L751.148 156.273H779.011V249.364H757.102V192.182H756.33L733.966 248.773H719.966L697.602 191.864H696.83V249.364H674.92V156.273ZM843.364 184.182C843.061 180.848 841.712 178.258 839.318 176.409C836.955 174.53 833.576 173.591 829.182 173.591C826.273 173.591 823.848 173.97 821.909 174.727C819.97 175.485 818.515 176.53 817.545 177.864C816.576 179.167 816.076 180.667 816.045 182.364C815.985 183.758 816.258 184.985 816.864 186.045C817.5 187.106 818.409 188.045 819.591 188.864C820.803 189.652 822.258 190.348 823.955 190.955C825.652 191.561 827.561 192.091 829.682 192.545L837.682 194.364C842.288 195.364 846.348 196.697 849.864 198.364C853.409 200.03 856.379 202.015 858.773 204.318C861.197 206.621 863.03 209.273 864.273 212.273C865.515 215.273 866.152 218.636 866.182 222.364C866.152 228.242 864.667 233.288 861.727 237.5C858.788 241.712 854.561 244.939 849.045 247.182C843.561 249.424 836.939 250.545 829.182 250.545C821.394 250.545 814.606 249.379 808.818 247.045C803.03 244.712 798.53 241.167 795.318 236.409C792.106 231.652 790.455 225.636 790.364 218.364H811.909C812.091 221.364 812.894 223.864 814.318 225.864C815.742 227.864 817.697 229.379 820.182 230.409C822.697 231.439 825.606 231.955 828.909 231.955C831.939 231.955 834.515 231.545 836.636 230.727C838.788 229.909 840.439 228.773 841.591 227.318C842.742 225.864 843.333 224.197 843.364 222.318C843.333 220.561 842.788 219.061 841.727 217.818C840.667 216.545 839.03 215.455 836.818 214.545C834.636 213.606 831.848 212.742 828.455 211.955L818.727 209.682C810.667 207.833 804.318 204.848 799.682 200.727C795.045 196.576 792.742 190.97 792.773 183.909C792.742 178.152 794.288 173.106 797.409 168.773C800.53 164.439 804.848 161.061 810.364 158.636C815.879 156.212 822.167 155 829.227 155C836.439 155 842.697 156.227 848 158.682C853.333 161.106 857.47 164.515 860.409 168.909C863.348 173.303 864.848 178.394 864.909 184.182H843.364Z" fill="white"/>
</svg>
