<svg width="374" height="374" viewBox="0 0 374 374" fill="none" xmlns="http://www.w3.org/2000/svg">
<path d="M0 58C0 25.9675 25.9675 0 58 0H316C348.033 0 374 25.9675 374 58V316C374 348.033 348.033 374 316 374H58C25.9675 374 0 348.033 0 316V58Z" fill="white"/>
<path d="M93.8636 72.9091H116.318V132.955C116.318 139.894 114.667 145.939 111.364 151.091C108.061 156.212 103.455 160.182 97.5455 163C91.6364 165.788 84.7727 167.182 76.9545 167.182C69.0455 167.182 62.1364 165.788 56.2273 163C50.3182 160.182 45.7273 156.212 42.4545 151.091C39.1818 145.939 37.5455 139.894 37.5455 132.955V72.9091H60.0455V131C60.0455 134.212 60.7424 137.076 62.1364 139.591C63.5606 142.106 65.5455 144.076 68.0909 145.5C70.6364 146.924 73.5909 147.636 76.9545 147.636C80.3182 147.636 83.2576 146.924 85.7727 145.5C88.3182 144.076 90.303 142.106 91.7273 139.591C93.1515 137.076 93.8636 134.212 93.8636 131V72.9091Z" fill="#8B28FF"/>
<path d="M218.284 119.455C218.284 129.697 216.314 138.379 212.375 145.5C208.436 152.621 203.102 158.03 196.375 161.727C189.678 165.424 182.163 167.273 173.83 167.273C165.466 167.273 157.936 165.409 151.239 161.682C144.542 157.955 139.223 152.545 135.284 145.455C131.375 138.333 129.42 129.667 129.42 119.455C129.42 109.212 131.375 100.53 135.284 93.4091C139.223 86.2879 144.542 80.8788 151.239 77.1818C157.936 73.4848 165.466 71.6364 173.83 71.6364C182.163 71.6364 189.678 73.4848 196.375 77.1818C203.102 80.8788 208.436 86.2879 212.375 93.4091C216.314 100.53 218.284 109.212 218.284 119.455ZM195.284 119.455C195.284 113.394 194.42 108.273 192.693 104.091C190.996 99.9091 188.542 96.7424 185.33 94.5909C182.148 92.4394 178.314 91.3636 173.83 91.3636C169.375 91.3636 165.542 92.4394 162.33 94.5909C159.117 96.7424 156.648 99.9091 154.92 104.091C153.223 108.273 152.375 113.394 152.375 119.455C152.375 125.515 153.223 130.636 154.92 134.818C156.648 139 159.117 142.167 162.33 144.318C165.542 146.47 169.375 147.545 173.83 147.545C178.314 147.545 182.148 146.47 185.33 144.318C188.542 142.167 190.996 139 192.693 134.818C194.42 130.636 195.284 125.515 195.284 119.455Z" fill="#8B28FF"/>
<path d="M231.42 72.9091H259.284L282.92 130.545H284.011L307.648 72.9091H335.511V166H313.602V108.818H312.83L290.466 165.409H276.466L254.102 108.5H253.33V166H231.42V72.9091Z" fill="#8B28FF"/>
<path d="M164.307 321H140.125L171.534 227.909H201.489L232.898 321H208.716L186.852 251.364H186.125L164.307 321ZM161.08 284.364H211.625V301.455H161.08V284.364Z" fill="black"/>
</svg>
